<?xml version="1.0" encoding="utf-8"?>
<svg version="1.1" id="mdi-cat" width="24" height="24" viewBox="0 0 24 24" xmlns="http://www.w3.org/2000/svg">
  <path fill="white" d="M 13.33 8.09 C 14.19 7.07 16.6 4.5 19 4.5 C 19 4.5 20.97 7.46 19.04 11.41 C 19.59 12.24 19.93 12.67 20 13.66 L 21.93 13.95 L 21.72 14.93 L 19.96 14.67 L 19.82 15.38 L 21.39 16.32 L 20.92 17.21 L 19.47 16.32 C 18.32 18.76 15.41 20 12 20 C 8.59 20 5.68 18.76 4.53 16.32 L 3.08 17.21 L 2.61 16.32 L 4.18 15.38 L 4.04 14.67 L 2.28 14.93 L 2.07 13.95 L 4 13.66 C 4.07 12.67 4.41 12.24 4.96 11.41 C 3.03 7.46 5 4.5 5 4.5 C 7.4 4.5 9.81 7.07 10.67 8.09 L 12 8 L 13.33 8.09 Z M 8 12 C 8 12.005 8 12.011 8 12.016 L 7.164 12.853 L 8.119 13.808 L 8.929 12.998 C 8.953 12.999 8.976 13 9 13 C 9.027 13 9.055 12.999 9.082 12.997 L 9.892 13.808 L 10.848 12.853 L 10 12.005 C 10 12.003 10 12.002 10 12 C 10 11.976 9.999 11.953 9.998 11.929 L 10.848 11.079 L 9.892 10.124 L 9.017 11 C 9.011 11 9.006 11 9 11 C 8.998 11 8.997 11 8.995 11 L 8.119 10.124 L 7.164 11.079 L 8.003 11.919 C 8.001 11.946 8 11.973 8 12 Z M 15 13 C 15.019 13 15.037 12.999 15.055 12.998 L 15.87 13.814 L 16.826 12.858 L 16 12.032 C 16 12.021 16 12.011 16 12 C 16 11.971 15.999 11.942 15.996 11.914 L 16.826 11.085 L 15.87 10.129 L 15 11 C 14.989 11 14.979 11 14.968 11 L 14.097 10.129 L 13.141 11.085 L 14.002 11.945 C 14.001 11.963 14 11.981 14 11.999 L 13.141 12.858 L 14.097 13.814 L 14.915 12.996 C 14.943 12.999 14.971 13 15 13 Z M 11.7 15.39 C 11.5 16.03 10.94 15.5 10.25 15.5 C 9.422 15.5 9.602 15.655 8.919 15.871 L 8.25 16 C 7.944 17.075 9.145 16 10.25 16 C 11 16 11.65 16.59 12 16 C 12.35 16.59 13 16 13.75 16 C 14.855 16 15.968 17.014 15.75 16 L 15.126 15.882 C 14.485 15.729 14.578 15.5 13.75 15.5 C 13.06 15.5 12.5 16.03 12.3 15.39 L 13 14 L 11 14 L 11.7 15.39 Z"/>
</svg>